<?xml version="1.0" encoding="UTF-8"?>
<svg width="236px" height="183px" viewBox="0 0 236 183" version="1.1" xmlns="http://www.w3.org/2000/svg" xmlns:xlink="http://www.w3.org/1999/xlink">
    <title>Flyeee個人logo_工作區域 2 複本 3 Copy</title>
    <defs>
        <linearGradient x1="41.5532734%" y1="90.0051754%" x2="60.3209243%" y2="26.2644279%" id="linearGradient-1">
            <stop stop-color="#2CA3CE" offset="0%"></stop>
            <stop stop-color="#00EBE2" offset="100%"></stop>
        </linearGradient>
    </defs>
    <g id="Flyeee-Yang's-Portfolio" stroke="none" stroke-width="1" fill="none" fill-rule="evenodd">
        <g id="手機版index" transform="translate(-76.000000, -338.000000)" fill-rule="nonzero">
            <g id="Group" transform="translate(0.000000, -1.000000)">
                <g id="Flyeee個人logo_工作區域-2-複本-3-Copy" transform="translate(76.171875, 339.875000)">
                    <path d="M147.47688,0 C80.8159149,0 62.7683543,28.1566489 47.2200269,110.591708 C43.0841276,132.555221 41.956155,137.730913 39.3463362,150.891326 C37.491414,159.692692 32.4404243,167.494188 25.1692696,172.788485 C17.8710272,178.222339 9.09287381,181.307978 0,181.635821 L62.0606068,181.635821 C71.224767,181.741905 80.3242978,180.090083 88.8665424,176.769786 C110.705206,167.502842 126.500611,147.975151 130.999634,124.681092 C130.999634,124.681092 135.555759,101.965555 137.413596,92.7643247 C138.674271,86.4163606 141.151387,82.2138757 147.123007,82.2138757 C155.969304,82.2940389 164.675563,80.0027904 172.33651,75.5783732 C181.397864,70.4597549 187.837331,61.7096407 190.030197,51.5357359 L145.309404,51.5357359 C123.192295,51.5357359 111.846218,63.1257469 108.418066,79.7366215 C105.985184,90.9948573 99.3500519,124.681092 99.3500519,124.681092 C96.3931678,137.732647 85.0518978,147.179699 71.681549,147.728404 L71.681549,147.728404 L80.9486175,101.744371 C80.9486175,101.744371 82.2314098,95.3521706 84.5315891,84.0496981 C91.4984783,49.8326236 107.732436,30.9656782 146.061385,30.9656782 L193.635286,30.9656782 C212.368477,30.9656782 230.615092,18.9775371 234.375,0.243301758 L147.47688,0 Z" id="Path" fill="#00EBE2"></path>
                    <path d="M166.294929,77.2061736 C160.318063,78.5878436 154.167857,79.058932 148.051137,78.6035965 C128.392069,76.8290913 125.93745,94.307968 121.956986,109.85707 C118.042863,125.073453 113.111511,133.879435 100.374027,142.06434 C94.8898327,145.546807 82.4840541,148.29729 71.6262336,147.565307 L71.6262336,147.565307 L80.8918686,101.450352 C80.8918686,101.450352 82.1744625,95.0399514 84.4742859,83.7052991 C91.4400975,49.3908039 107.671544,30.46875 145.994564,30.46875 C96.7031551,30.2705098 79.3881378,51.5202102 60.7462993,112.541009 C46.3281751,159.898118 34.3204429,165.776167 25.1653763,172.763281 L25.1653763,172.763281 C17.8682628,178.212607 9.09146728,181.307031 0,181.635808 L62.0067795,181.635808 C71.1695222,181.742193 80.2676454,180.085668 88.8085687,176.755918 C110.660943,167.449828 126.456962,147.837796 130.935143,124.452376 C130.935143,124.452376 135.490563,101.672165 137.348113,92.4447375 C138.608593,86.0786999 141.085326,81.8642499 147.056021,81.8642499 C155.90095,81.9446413 164.605862,79.6468693 172.265625,75.2098552 C170.348618,76.0781642 168.347932,76.7470991 166.294929,77.2061736 L166.294929,77.2061736 Z" id="Path" fill="url(#linearGradient-1)"></path>
                </g>
            </g>
        </g>
    </g>
</svg>