<?xml version="1.0" encoding="UTF-8"?>
<svg width="28px" height="21px" viewBox="0 0 28 21" version="1.1" xmlns="http://www.w3.org/2000/svg" xmlns:xlink="http://www.w3.org/1999/xlink">
    <title>_剪裁路徑_@3x</title>
    <g id="Flyeee-Yang's-Portfolio" stroke="none" stroke-width="1" fill="none" fill-rule="evenodd">
        <g id="手機版index" transform="translate(-22.000000, -56.000000)" fill="#00EBE2" fill-rule="nonzero">
            <g id="Group" transform="translate(0.000000, -1.000000)">
                <g id="navbar" transform="translate(0.000000, 0.593750)">
                    <path d="M39.6185713,56.40625 C31.654808,56.40625 29.4987261,59.6619184 27.6412192,69.1936356 C27.1471171,71.7332103 27.012362,72.33166 26.7005756,73.8533588 C26.2672454,75.955605 24.1640087,77.3340852 22,77.4056946 L29.4141738,77.4056946 C30.5089855,77.4179607 31.5960761,77.2269655 32.6165896,76.8430496 C35.2249019,75.7720316 37.1118046,73.5152078 37.6500896,70.8227485 C37.6500896,70.8227485 38.1943946,68.1962195 38.4163442,67.132309 C38.5669529,66.3983131 38.8628857,65.9123924 39.5762952,65.9123924 C42.0335944,65.9123924 44.2636595,64.5211249 44.7154855,62.3549418 L39.3596301,62.3549418 C36.7173728,62.3549418 35.3618949,63.6950598 34.952345,65.6157251 C34.6616967,66.9277108 33.8690195,70.8227485 33.8690195,70.8227485 C33.5157704,72.3318604 32.1608667,73.4241946 30.5635557,73.4876396 L31.6706615,68.1706447 C31.6706615,68.1706447 31.8239124,67.4315338 32.0987072,66.124663 C32.9310182,62.1682459 34.870435,59.986718 39.4494668,59.986718 L45.1329622,59.986718 C47.370954,59.986718 49.5508163,58.6005654 50,56.4343822 L39.6185713,56.40625 Z" id="_剪裁路徑_"></path>
                </g>
            </g>
        </g>
    </g>
</svg>