<?xml version="1.0" standalone="no"?>
<!DOCTYPE svg PUBLIC "-//W3C//DTD SVG 20010904//EN"
 "http://www.w3.org/TR/2001/REC-SVG-20010904/DTD/svg10.dtd">
<svg version="1.0" xmlns="http://www.w3.org/2000/svg"
 width="399.000000pt" height="399.000000pt" viewBox="0 0 399.000000 399.000000"
 preserveAspectRatio="xMidYMid meet">
<metadata>
Created by potrace 1.11, written by Peter Selinger 2001-2013
</metadata>
<g transform="translate(0.000000,399.000000) scale(0.100000,-0.100000)"
fill="#000000" stroke="none">
<path d="M2230 3530 c-30 -5 -77 -11 -105 -14 -174 -21 -317 -63 -460 -132
-409 -200 -640 -633 -824 -1539 -25 -123 -88 -450 -107 -555 -74 -404 -109
-497 -233 -621 -110 -109 -228 -173 -381 -204 -102 -21 1029 -19 1148 1 165
29 317 89 446 177 86 58 93 64 188 159 101 102 190 231 248 363 51 117 62 160
126 480 2 11 6 31 9 45 3 14 12 59 20 100 8 41 17 86 20 100 28 147 54 205
105 231 20 10 69 20 115 23 281 19 500 140 621 341 40 66 76 172 61 177 -7 3
-203 3 -437 2 -344 -1 -439 -5 -496 -18 -256 -56 -410 -227 -460 -511 -9 -51
-13 -73 -23 -115 -5 -25 -12 -58 -15 -75 -3 -16 -22 -111 -42 -210 -20 -99
-38 -193 -41 -210 -9 -56 -34 -150 -50 -190 -43 -102 -137 -204 -230 -250 -73
-35 -97 -43 -198 -58 -5 -1 -9 3 -9 8 1 6 4 28 7 50 3 22 17 94 31 160 14 66
27 131 30 145 2 14 7 36 10 50 3 14 8 36 10 50 2 14 29 149 60 300 31 151 59
289 62 305 25 146 99 359 165 476 49 86 57 96 144 186 137 141 337 226 584
249 41 4 297 8 570 9 332 1 514 6 551 14 215 45 395 178 485 355 19 39 37 81
40 94 2 13 7 32 10 41 5 17 -36 18 -847 18 -469 0 -878 -3 -908 -7z"/>
</g>
</svg>
