<svg xmlns="http://www.w3.org/2000/svg" xmlns:xlink="http://www.w3.org/1999/xlink" viewBox="0 0 120.14 120.14"><defs><style>.cls-1{fill:#00ebe2;}.cls-2{fill:url(#未命名漸層_8);}</style><linearGradient id="未命名漸層_8" x1="39.47" y1="102.48" x2="54.09" y2="46.07" gradientUnits="userSpaceOnUse"><stop offset="0" stop-color="#2ca3ce"/><stop offset="1" stop-color="#00ebe2"/></linearGradient></defs><title>Flyeee個人logo</title><g id="圖層_2" data-name="圖層 2"><path class="cls-1" d="M73.76,19c-30.14,0-38.3,12.73-45.33,50-1.87,9.93-2.38,12.27-3.56,18.22a16.44,16.44,0,0,1-6.41,9.9,20.28,20.28,0,0,1-11.38,4H35.14a32.42,32.42,0,0,0,12.12-2.2A32.22,32.22,0,0,0,66.31,75.37s2.06-10.27,2.9-14.43c.57-2.87,1.69-4.77,4.39-4.77a22.39,22.39,0,0,0,11.4-3,16.47,16.47,0,0,0,8-10.87H72.78c-10,0-15.13,5.24-16.68,12.75C55,60.14,52,75.37,52,75.37A13.39,13.39,0,0,1,39.49,85.79h0L43.68,65s.58-2.89,1.62-8c3.15-15.47,10.49-24,27.82-24H94.63c8.47,0,16.72-5.42,18.42-13.89Z"/><path class="cls-2" d="M82.3,54.07a27.63,27.63,0,0,1-8.25.63c-8.89-.8-10,7.08-11.8,14.09-1.77,6.86-4,10.83-9.76,14.52-2.48,1.57-8.09,2.81-13,2.48h0L43.68,65s.58-2.89,1.62-8c3.15-15.47,10.49-24,27.82-24C50.83,32.91,43,42.49,34.57,70c-6.52,21.35-11.95,24-16.09,27.15l0,0a20.28,20.28,0,0,1-11.38,4H35.14a32.42,32.42,0,0,0,12.12-2.2A32.22,32.22,0,0,0,66.31,75.37s2.06-10.27,2.9-14.43c.57-2.87,1.69-4.77,4.39-4.77a22.39,22.39,0,0,0,11.4-3A13.92,13.92,0,0,1,82.3,54.07Z"/></g></svg>