<svg xmlns="http://www.w3.org/2000/svg" xmlns:xlink="http://www.w3.org/1999/xlink" viewBox="0 0 120.14 120.14"><defs><style>.cls-1{fill:url(#未命名漸層_13);}.cls-2{fill:url(#未命名漸層_254);}.cls-3{fill:#00ebe2;}.cls-4{isolation:isolate;}.cls-5{clip-path:url(#clip-path);}.cls-6{fill:url(#未命名漸層_8);}.cls-7{mask:url(#mask);}.cls-8{fill:url(#未命名漸層_8-2);}.cls-11,.cls-9{mix-blend-mode:hard-light;}.cls-10{mask:url(#mask-3);}.cls-11{opacity:0.5;}.cls-12{fill:#fff;}</style><linearGradient id="未命名漸層_13" x1="49.11" y1="82.26" x2="72.43" y2="33.88" gradientUnits="userSpaceOnUse"><stop offset="0" stop-color="#fff"/><stop offset="1"/></linearGradient><linearGradient id="未命名漸層_254" x1="54.39" y1="41.27" x2="41.89" y2="25.52" gradientUnits="userSpaceOnUse"><stop offset="0"/><stop offset="0.02" stop-color="#0d0d0d"/><stop offset="0.1" stop-color="#4c4c4c"/><stop offset="0.18" stop-color="#838383"/><stop offset="0.26" stop-color="#afafaf"/><stop offset="0.33" stop-color="#d2d2d2"/><stop offset="0.4" stop-color="#ebebeb"/><stop offset="0.47" stop-color="#fafafa"/><stop offset="0.52" stop-color="#fff"/><stop offset="0.59" stop-color="#fbfbfb"/><stop offset="0.65" stop-color="#f0f0f0"/><stop offset="0.71" stop-color="#ddd"/><stop offset="0.76" stop-color="#c2c2c2"/><stop offset="0.82" stop-color="#9f9f9f"/><stop offset="0.88" stop-color="#757575"/><stop offset="0.94" stop-color="#424242"/><stop offset="0.99" stop-color="#090909"/><stop offset="1"/></linearGradient><clipPath id="clip-path"><path id="_剪裁路徑_" data-name="&lt;剪裁路徑&gt;" class="cls-3" d="M73.75,19c-30.13,0-38.3,12.73-45.32,50-1.88,9.93-2.38,12.27-3.56,18.22-1.64,8.22-9.6,13.61-17.79,13.89H35.14a32.22,32.22,0,0,0,12.12-2.21,32.16,32.16,0,0,0,19-23.54s2.06-10.27,2.9-14.43c.58-2.87,1.69-4.77,4.4-4.77,9.29,0,17.74-5.44,19.45-13.91H72.78c-10,0-15.13,5.24-16.68,12.75C55,60.14,52,75.37,52,75.37A13.39,13.39,0,0,1,39.48,85.79L43.68,65s.58-2.89,1.62-8c3.15-15.47,10.49-24,27.82-24H94.63c8.47,0,16.71-5.42,18.42-13.89Z"/></clipPath><linearGradient id="未命名漸層_8" x1="42.42" y1="103.24" x2="57.04" y2="46.83" gradientUnits="userSpaceOnUse"><stop offset="0" stop-color="#2ca3ce"/><stop offset="1" stop-color="#00ebe2"/></linearGradient><mask id="mask" x="2.75" y="15.22" width="113.42" height="91.16" maskUnits="userSpaceOnUse"><rect class="cls-1" x="2.75" y="15.22" width="113.42" height="91.16"/></mask><linearGradient id="未命名漸層_8-2" x1="46.77" y1="111.4" x2="73.38" y2="8.74" xlink:href="#未命名漸層_8"/><filter id="luminosity-invert" filterUnits="userSpaceOnUse" color-interpolation-filters="sRGB"><feColorMatrix values="-1 0 0 0 1 0 -1 0 0 1 0 0 -1 0 1 0 0 0 1 0"/></filter><mask id="mask-3" x="7.44" y="14.09" width="111.04" height="75.98" maskUnits="userSpaceOnUse"><rect class="cls-2" x="7.44" y="14.09" width="111.04" height="75.98"/></mask></defs><title>Flyeee個人logo</title><g class="cls-4"><g id="圖層_2" data-name="圖層 2"><path id="_剪裁路徑_2" data-name="&lt;剪裁路徑&gt;" class="cls-3" d="M73.75,19c-30.13,0-38.3,12.73-45.32,50-1.88,9.93-2.38,12.27-3.56,18.22-1.64,8.22-9.6,13.61-17.79,13.89H35.14a32.22,32.22,0,0,0,12.12-2.21,32.16,32.16,0,0,0,19-23.54s2.06-10.27,2.9-14.43c.58-2.87,1.69-4.77,4.4-4.77,9.29,0,17.74-5.44,19.45-13.91H72.78c-10,0-15.13,5.24-16.68,12.75C55,60.14,52,75.37,52,75.37A13.39,13.39,0,0,1,39.48,85.79L43.68,65s.58-2.89,1.62-8c3.15-15.47,10.49-24,27.82-24H94.63c8.47,0,16.71-5.42,18.42-13.89Z"/><g class="cls-5"><path class="cls-6" d="M43.36,79.86a18.68,18.68,0,0,0,1.75-6.15A87.28,87.28,0,0,1,48.46,59c2-5.7,2.8-11.5,6.6-16.48,4.09-5.36,11.39-5.49,17.62-5.9C82.78,35.9,105.4,35.76,106,34c-13.18.48-19.6-1.09-32.83-1.09C50.83,32.91,43,42.49,34.57,70c-6.52,21.35-12,23.94-16.09,27.15-3.62,2.81-24.56,4.21-21,5.51,2.22.81,25.11-1.25,28.93-1.48a6.94,6.94,0,0,1-.9.9c3.82,2.37,6.1,3.36,10.84,3.18a42,42,0,0,0,19.37-6A24.44,24.44,0,0,0,64.08,92a25.24,25.24,0,0,0,3.39-9.54c.34-1.84.59-3.69.77-5.55s.28-3.86.3-5.79c0-4.17,1.34-7.34,4.79-9.73,3-2.1,6.47-3.65,9.65-5.55,1.57-.94,6.4-4.39,7-6.1a17.22,17.22,0,0,1-7.73,4.37,27.3,27.3,0,0,1-8.25.63c-8.89-.8-10,7.08-11.81,14.09-1.76,6.86-3.94,10.83-9.75,14.52-2.48,1.57-8.09,2.81-13,2.48C40.84,79.3,42.22,82,43.36,79.86Z"/></g><g class="cls-7"><path class="cls-8" d="M111.8,20c-2,7-9,11.93-17.17,11.93H73.12c-16.64,0-25.24,7.41-28.78,24.79-1,5.15-1.62,8-1.62,8h0L38.53,85.59a1,1,0,0,0,.95,1.17c6.19,0,12.24-5,13.48-11.2,0-.15,3-15.29,4.1-20.35,1.62-7.83,7-12,15.72-12h19a15.7,15.7,0,0,1-7.14,8.95,21.3,21.3,0,0,1-11.06,3c-3.8,0-4.88,3.17-5.36,5.56-.84,4.16-2.9,14.43-2.9,14.43A31.38,31.38,0,0,1,46.89,98a31.6,31.6,0,0,1-11.75,2.13H15.32a21.27,21.27,0,0,0,3.73-2.23,17.27,17.27,0,0,0,6.78-10.49l.66-3.3c.79-3.93,1.41-7,2.9-14.92,3.84-20.39,7.84-31.55,13.78-38.52C49.55,23.19,58.7,20,73.75,20H111.8m1.25-1Zm0,0H73.75c-30.13,0-38.3,12.73-45.32,50-1.88,9.93-2.38,12.27-3.56,18.22a16.44,16.44,0,0,1-6.41,9.9,20.28,20.28,0,0,1-11.38,4H35.14a32.22,32.22,0,0,0,12.12-2.21,32.16,32.16,0,0,0,19-23.54s2.06-10.27,2.9-14.43c.58-2.87,1.69-4.77,4.4-4.77A22.42,22.42,0,0,0,85.17,53a16.49,16.49,0,0,0,7.88-10.77H72.78c-10,0-15.13,5.24-16.68,12.75C55,60.14,52,75.37,52,75.37A13.39,13.39,0,0,1,39.48,85.79L43.68,65s.58-2.89,1.62-8c3.15-15.47,10.49-24,27.82-24H94.63c8.47,0,16.71-5.42,18.42-13.89Z"/></g><g class="cls-7"><g class="cls-9"><path class="cls-8" d="M111.8,20c-2,7-9,11.93-17.17,11.93H73.12c-16.64,0-25.24,7.41-28.78,24.79-1,5.15-1.62,8-1.62,8h0L38.53,85.59a1,1,0,0,0,.95,1.17c6.19,0,12.24-5,13.48-11.2,0-.15,3-15.29,4.1-20.35,1.62-7.83,7-12,15.72-12h19a15.7,15.7,0,0,1-7.14,8.95,21.3,21.3,0,0,1-11.06,3c-3.8,0-4.88,3.17-5.36,5.56-.84,4.16-2.9,14.43-2.9,14.43A31.38,31.38,0,0,1,46.89,98a31.6,31.6,0,0,1-11.75,2.13H15.32a21.27,21.27,0,0,0,3.73-2.23,17.27,17.27,0,0,0,6.78-10.49l.66-3.3c.79-3.93,1.41-7,2.9-14.92,3.84-20.39,7.84-31.55,13.78-38.52C49.55,23.19,58.7,20,73.75,20H111.8m1.25-1Zm0,0H73.75c-30.13,0-38.3,12.73-45.32,50-1.88,9.93-2.38,12.27-3.56,18.22a16.44,16.44,0,0,1-6.41,9.9,20.28,20.28,0,0,1-11.38,4H35.14a32.22,32.22,0,0,0,12.12-2.21,32.16,32.16,0,0,0,19-23.54s2.06-10.27,2.9-14.43c.58-2.87,1.69-4.77,4.4-4.77A22.42,22.42,0,0,0,85.17,53a16.49,16.49,0,0,0,7.88-10.77H72.78c-10,0-15.13,5.24-16.68,12.75C55,60.14,52,75.37,52,75.37A13.39,13.39,0,0,1,39.48,85.79L43.68,65s.58-2.89,1.62-8c3.15-15.47,10.49-24,27.82-24H94.63c8.47,0,16.71-5.42,18.42-13.89Z"/></g></g><g class="cls-10"><g class="cls-11"><path class="cls-12" d="M74.71,20.18c-25.12,0-36.57,7.69-42.42,38.75-1.56,8.27-2,10.22-3,15.18-.68,3.41-1.89,11.57-1.77,11.57h6.89s2.32-21,6.89-36.58c3.72-12.62,15-20.26,29.41-20.26H90.19c7,0,18-1.61,19.41-8.66Z"/></g></g></g></g></svg>