<svg xmlns="http://www.w3.org/2000/svg" viewBox="0 0 120.14 120.14"><defs><style>.cls-1{fill:#00ebe2;}</style></defs><title>Flyeee個人logo</title><g id="圖層_2" data-name="圖層 2"><path id="_剪裁路徑_" data-name="&lt;剪裁路徑&gt;" class="cls-1" d="M73.76,19c-30.14,0-38.3,12.73-45.33,50-1.87,9.93-2.38,12.27-3.56,18.22-1.64,8.22-9.6,13.61-17.79,13.89H35.14a32.42,32.42,0,0,0,12.12-2.2A32.22,32.22,0,0,0,66.31,75.37s2.06-10.27,2.9-14.43c.57-2.87,1.69-4.77,4.39-4.77,9.3,0,17.74-5.44,19.45-13.91H72.78c-10,0-15.13,5.24-16.68,12.75C55,60.14,52,75.37,52,75.37A13.39,13.39,0,0,1,39.49,85.79L43.68,65s.58-2.89,1.62-8c3.15-15.47,10.49-24,27.82-24H94.63c8.47,0,16.72-5.42,18.42-13.89Z"/></g></svg>