<?xml version="1.0" encoding="UTF-8"?>
<svg width="86px" height="90px" viewBox="0 0 86 90" version="1.1" xmlns="http://www.w3.org/2000/svg" xmlns:xlink="http://www.w3.org/1999/xlink">
    <title>icon/skill/dp</title>
    <defs>
        <path d="M20.9049479,27.0703125 C20.9960937,27.4869792 21.0416667,27.9166667 21.0416667,28.3528646 C21.0416667,33.6393229 17.5130208,36.6666667 12.265625,36.6666667 C6.03515625,36.6666667 3.33333333,31.6601562 3.33333333,25.9635417 C4.01041667,26.4257812 6.38671875,28.3398438 7.15494792,28.3398438 C7.61067708,28.3398438 8.00130208,28.0794271 8.1640625,27.6497396 C9.70052083,23.6002604 12.4934896,22.6692708 15.5143229,22.6106771 C16.5299479,24.8111979 18.515625,26.4908854 20.9049479,27.0703125 L20.9049479,27.0703125 Z M33.3203125,3.33333333 C32.3828125,3.33333333 31.5039063,3.75 30.8333333,4.35546875 C18.1901042,15.703125 16.875,15.9700521 16.875,19.3098958 C16.875,22.4869792 19.5117188,25.2083333 22.7473958,25.2083333 C26.5885417,25.2083333 28.8151042,22.3828125 35.8072917,9.27083333 C36.2630208,8.37890625 36.6666667,7.41536458 36.6666667,6.41276042 C36.6666667,4.61588542 35.0585938,3.33333333 33.3203125,3.33333333 Z" id="path-1"></path>
    </defs>
    <g id="icon/skill/dp" stroke="none" stroke-width="1" fill="none" fill-rule="evenodd">
        <g id="Group-2" fill="#00EBE2">
            <path d="M51.1421131,4.99056951 L72.2720999,17.7444914 C77.0708623,20.640993 80.0040025,25.8374521 80.0040025,31.4426142 L80.0040025,58.2030551 C80.0040025,63.8082172 77.0708623,69.0046763 72.2720999,71.9011779 L51.1421131,84.6550998 C46.0572838,87.7242695 39.6907476,87.7242695 34.6059184,84.6550998 L13.4759316,71.9011779 C8.67716923,69.0046763 5.74402895,63.8082172 5.74402895,58.2030551 L5.74402895,31.4426142 C5.74402895,25.8374521 8.67716923,20.640993 13.4759316,17.7444914 L34.6059184,4.99056951 C39.6907476,1.92139982 46.0572838,1.92139982 51.1421131,4.99056951 Z" id="Polygon"></path>
        </g>
        <g id="Icons/Solid/paint-brush" transform="translate(23.000000, 29.000000)">
            <mask id="mask-2" fill="white">
                <use xlink:href="#path-1"></use>
            </mask>
            <use id="paint-brush" fill="#000000" fill-rule="nonzero" xlink:href="#path-1"></use>
            <g id="Colors/5th" mask="url(#mask-2)" fill="#FFFFFF" fill-rule="evenodd">
                <rect id="Rectangle" x="0" y="0" width="40" height="40"></rect>
            </g>
        </g>
    </g>
</svg>