<?xml version="1.0" encoding="UTF-8"?>
<svg width="86px" height="90px" viewBox="0 0 86 90" version="1.1" xmlns="http://www.w3.org/2000/svg" xmlns:xlink="http://www.w3.org/1999/xlink">
    <title>icon/skill/ui</title>
    <defs>
        <path d="M30.1851852,5 L9.81481481,5 C9.58333333,5 9.36342593,5.11718178 9.23611111,5.3163908 L3.44907407,13.9409697 C3.28125,14.1987696 3.29861111,14.5385967 3.48958333,14.7729603 L19.4618056,34.7407353 C19.7395833,35.0864216 20.2604167,35.0864216 20.5381944,34.7407353 L36.5104167,14.7729603 C36.7013889,14.5327377 36.71875,14.1987696 36.5509259,13.9409697 L30.7696759,5.3163908 C30.6365741,5.11718178 30.4224537,5 30.1851852,5 Z M29.068287,7.81236268 L32.7314815,13.437088 L28.7731481,13.437088 L25.78125,7.81236268 L29.068287,7.81236268 L29.068287,7.81236268 Z M17.3726852,7.81236268 L22.6215278,7.81236268 L25.6134259,13.437088 L14.3865741,13.437088 L17.3726852,7.81236268 Z M10.931713,7.81236268 L14.21875,7.81236268 L11.2268519,13.437088 L7.26851852,13.437088 L10.931713,7.81236268 Z M8.44328704,16.2494507 L11.4178241,16.2494507 L15.3703704,25.623993 L8.44328704,16.2494507 Z M14.3981481,16.2494507 L25.6018519,16.2494507 L20,30.504614 L14.3981481,16.2494507 Z M24.6296296,25.623993 L28.5763889,16.2494507 L31.5509259,16.2494507 L24.6296296,25.623993 Z" id="path-1"></path>
    </defs>
    <g id="icon/skill/ui" stroke="none" stroke-width="1" fill="none" fill-rule="evenodd">
        <g id="Group-2" fill="#00EBE2">
            <path d="M51.1421131,4.99056951 L72.2720999,17.7444914 C77.0708623,20.640993 80.0040025,25.8374521 80.0040025,31.4426142 L80.0040025,58.2030551 C80.0040025,63.8082172 77.0708623,69.0046763 72.2720999,71.9011779 L51.1421131,84.6550998 C46.0572838,87.7242695 39.6907476,87.7242695 34.6059184,84.6550998 L13.4759316,71.9011779 C8.67716923,69.0046763 5.74402895,63.8082172 5.74402895,58.2030551 L5.74402895,31.4426142 C5.74402895,25.8374521 8.67716923,20.640993 13.4759316,17.7444914 L34.6059184,4.99056951 C39.6907476,1.92139982 46.0572838,1.92139982 51.1421131,4.99056951 Z" id="Polygon"></path>
        </g>
        <g id="Icons/Regular/gem" transform="translate(23.000000, 29.000000)">
            <mask id="mask-2" fill="white">
                <use xlink:href="#path-1"></use>
            </mask>
            <use id="gem" fill="#000000" fill-rule="nonzero" xlink:href="#path-1"></use>
            <g id="Colors/5th" mask="url(#mask-2)" fill="#FFFFFF" fill-rule="evenodd">
                <rect id="Rectangle" x="0" y="0" width="40" height="40"></rect>
            </g>
        </g>
    </g>
</svg>