<?xml version="1.0" encoding="UTF-8"?>
<svg width="86px" height="90px" viewBox="0 0 86 90" version="1.1" xmlns="http://www.w3.org/2000/svg" xmlns:xlink="http://www.w3.org/1999/xlink">
    <title>icon/skill/visual</title>
    <defs>
        <path d="M36.2820319,18.5721289 C33.0190166,12.9657617 26.9334366,9.21875 19.9999992,9.21875 C13.0636684,9.21875 6.97941937,12.9683984 3.71796655,18.5721289 C3.20512226,19.4532523 3.20512226,20.5468063 3.71796655,21.4279297 C6.98098187,27.0342383 13.0665619,30.78125 19.9999992,30.78125 C26.9363301,30.78125 33.0205791,27.0316016 36.2820319,21.4278711 C36.7948783,20.5467693 36.7948783,19.4532307 36.2820319,18.5721289 Z M19.9999992,27.96875 C15.6503538,27.96875 12.1296422,24.404668 12.1296422,20 C12.1296422,15.5959766 15.6496594,12.03125 19.9999992,12.03125 C24.3496447,12.03125 27.8703563,15.5952734 27.8703563,20 C27.8703563,24.4040234 24.3503391,27.96875 19.9999992,27.96875 Z M26.0185076,20 C26.0185076,23.3655078 23.3239519,26.09375 19.9999992,26.09375 C16.6760465,26.09375 13.9814909,23.3655078 13.9814909,20 C13.9814909,18.9624219 14.2379141,17.9856055 14.6895915,17.1304883 L14.6895337,17.1323633 C14.6895337,18.5181641 15.7990804,19.6415234 17.1677702,19.6415234 C18.53646,19.6415234 19.6460068,18.5181055 19.6460068,17.1323633 C19.6460068,15.7465625 18.53646,14.6231445 17.1677702,14.6231445 L17.1659184,14.6232031 C18.0104771,14.1658789 18.9752324,13.90625 19.9999992,13.90625 C23.3239519,13.90625 26.0185076,16.6344922 26.0185076,20 Z" id="path-1"></path>
    </defs>
    <g id="icon/skill/visual" stroke="none" stroke-width="1" fill="none" fill-rule="evenodd">
        <g id="Group-2" fill="#00EBE2">
            <path d="M51.1421131,4.99056951 L72.2720999,17.7444914 C77.0708623,20.640993 80.0040025,25.8374521 80.0040025,31.4426142 L80.0040025,58.2030551 C80.0040025,63.8082172 77.0708623,69.0046763 72.2720999,71.9011779 L51.1421131,84.6550998 C46.0572838,87.7242695 39.6907476,87.7242695 34.6059184,84.6550998 L13.4759316,71.9011779 C8.67716923,69.0046763 5.74402895,63.8082172 5.74402895,58.2030551 L5.74402895,31.4426142 C5.74402895,25.8374521 8.67716923,20.640993 13.4759316,17.7444914 L34.6059184,4.99056951 C39.6907476,1.92139982 46.0572838,1.92139982 51.1421131,4.99056951 Z" id="Polygon"></path>
        </g>
        <g id="Icons/Solid/eye" transform="translate(23.000000, 29.000000)">
            <mask id="mask-2" fill="white">
                <use xlink:href="#path-1"></use>
            </mask>
            <use id="eye" fill="#000000" fill-rule="nonzero" xlink:href="#path-1"></use>
            <g id="Colors/5th" mask="url(#mask-2)" fill="#FFFFFF" fill-rule="evenodd">
                <rect id="Rectangle" x="0" y="0" width="40" height="40"></rect>
            </g>
        </g>
    </g>
</svg>