<?xml version="1.0" encoding="UTF-8"?>
<svg width="86px" height="90px" viewBox="0 0 86 90" version="1.1" xmlns="http://www.w3.org/2000/svg" xmlns:xlink="http://www.w3.org/1999/xlink">
    <title>icon/skill/web</title>
    <defs>
        <path d="M17.8595422,33.3063584 L14.6827071,32.3844834 C14.3493998,32.2907334 14.1619144,31.941775 14.2556571,31.6084417 L21.3644767,7.11885836 C21.4582194,6.78552503 21.8071505,6.59802503 22.1404578,6.69177503 L25.3172929,7.61365003 C25.6506002,7.70740003 25.8380856,8.05635836 25.7443429,8.3896917 L18.6355233,32.879275 C18.5365727,33.2126084 18.1928495,33.4053167 17.8595422,33.3063584 L17.8595422,33.3063584 Z M11.9225061,27.4626084 L14.1879541,25.0459417 C14.4275187,24.7907334 14.4118949,24.3844834 14.1462907,24.1501084 L9.42790928,19.9990667 L14.1462907,15.848025 C14.4118949,15.61365 14.4327266,15.2074 14.1879541,14.9521917 L11.9225061,12.535525 C11.6881494,12.285525 11.292347,12.2699 11.0371586,12.5094834 L3.53253652,19.5407334 C3.26693227,19.785525 3.26693227,20.2074 3.53253652,20.4521917 L11.0371586,27.48865 C11.292347,27.7282334 11.6881494,27.7178167 11.9225061,27.4626084 L11.9225061,27.4626084 Z M28.9628414,27.4938584 L36.4674635,20.4574 C36.7330677,20.2126084 36.7330677,19.7907334 36.4674635,19.5459417 L28.9628414,12.504275 C28.712861,12.2699 28.3170586,12.2803167 28.0774939,12.5303167 L25.8120459,14.9469834 C25.5724813,15.2021917 25.5881051,15.6084417 25.8537093,15.8428167 L30.5720907,19.9990667 L25.8537093,24.1501084 C25.5881051,24.3844834 25.5672734,24.7907334 25.8120459,25.0459417 L28.0774939,27.4626084 C28.3118506,27.7178167 28.707653,27.7282334 28.9628414,27.4938584 Z" id="path-1"></path>
    </defs>
    <g id="icon/skill/web" stroke="none" stroke-width="1" fill="none" fill-rule="evenodd">
        <g id="Group-2">
            <path d="M51.1421131,4.99056951 L72.2720999,17.7444914 C77.0708623,20.640993 80.0040025,25.8374521 80.0040025,31.4426142 L80.0040025,58.2030551 C80.0040025,63.8082172 77.0708623,69.0046763 72.2720999,71.9011779 L51.1421131,84.6550998 C46.0572838,87.7242695 39.6907476,87.7242695 34.6059184,84.6550998 L13.4759316,71.9011779 C8.67716923,69.0046763 5.74402895,63.8082172 5.74402895,58.2030551 L5.74402895,31.4426142 C5.74402895,25.8374521 8.67716923,20.640993 13.4759316,17.7444914 L34.6059184,4.99056951 C39.6907476,1.92139982 46.0572838,1.92139982 51.1421131,4.99056951 Z" id="Polygon" fill="#00EBE2"></path>
            <g id="Icons/Solid/code" transform="translate(23.000000, 29.000000)">
                <mask id="mask-2" fill="white">
                    <use xlink:href="#path-1"></use>
                </mask>
                <use id="code" fill="#000000" fill-rule="nonzero" xlink:href="#path-1"></use>
                <g id="Colors/5th" mask="url(#mask-2)" fill="#FFFFFF" fill-rule="evenodd">
                    <rect id="Rectangle" x="0" y="0" width="40" height="40"></rect>
                </g>
            </g>
        </g>
    </g>
</svg>