<?xml version="1.0" encoding="utf-8"?>
<!-- Generator: Adobe Illustrator 22.1.0, SVG Export Plug-In . SVG Version: 6.00 Build 0)  -->
<svg version="1.1" id="圖層_1" xmlns="http://www.w3.org/2000/svg" xmlns:xlink="http://www.w3.org/1999/xlink" x="0px" y="0px"
	 viewBox="0 0 66 66" style="enable-background:new 0 0 66 66;" xml:space="preserve">
<style type="text/css">
	.st0{fill:#FFFFFF;}
</style>
<title>Icons/Solid/code</title>
<g id="Flyeee-Yang_x27_s-Portfolio">
	<g id="網頁版index" transform="translate(-248.000000, -2022.000000)">
		<g id="Icons_x2F_Solid_x2F_code" transform="translate(243.000000, 2011.000000)">
			<g id="code">
				<path id="path-1_1_" class="st0" d="M34.5,66l-5.2-1.5c-0.5-0.2-0.9-0.7-0.7-1.3l11.7-40.4c0.2-0.6,0.7-0.9,1.3-0.7l5.2,1.5
					c0.5,0.2,0.9,0.7,0.7,1.3L35.7,65.3C35.6,65.8,35,66.1,34.5,66L34.5,66z M24.7,56.3l3.7-4c0.4-0.4,0.4-1.1-0.1-1.5L20.6,44
					l7.8-6.8c0.4-0.4,0.5-1.1,0.1-1.5l-3.7-4c-0.4-0.4-1-0.4-1.5,0L10.8,43.2c-0.4,0.4-0.4,1.1,0,1.5l12.4,11.6
					C23.6,56.8,24.3,56.7,24.7,56.3L24.7,56.3z M52.8,56.4l12.4-11.6c0.4-0.4,0.4-1.1,0-1.5L52.8,31.6c-0.4-0.4-1.1-0.4-1.5,0
					l-3.7,4c-0.4,0.4-0.4,1.1,0.1,1.5l7.8,6.9l-7.8,6.8c-0.4,0.4-0.5,1.1-0.1,1.5l3.7,4C51.7,56.7,52.4,56.8,52.8,56.4z"/>
			</g>
		</g>
	</g>
</g>
</svg>
