<?xml version="1.0" encoding="UTF-8"?>
<svg width="56px" height="44px" viewBox="0 0 56 44" version="1.1" xmlns="http://www.w3.org/2000/svg" xmlns:xlink="http://www.w3.org/1999/xlink">
    <title>Icons/Solid/code</title>
    <defs>
        <path d="M29.4682447,54.9554913 L24.2264667,53.4343976 C23.6765096,53.2797101 23.3671588,52.7039288 23.5218342,52.1539288 L35.2513866,11.7461163 C35.406062,11.1961163 35.9817983,10.8867413 36.5317553,11.0414288 L41.7735333,12.5625226 C42.3234904,12.7172101 42.6328412,13.2929913 42.4781658,13.8429913 L30.7486134,54.2508038 C30.5853449,54.8008038 30.0182017,55.1187726 29.4682447,54.9554913 L29.4682447,54.9554913 Z M19.672135,45.3133038 L23.4101242,41.3258038 C23.8054058,40.9047101 23.7796266,40.2343976 23.3413796,39.8476788 L15.5560503,32.9984601 L23.3413796,26.1492413 C23.7796266,25.7625226 23.8139989,25.0922101 23.4101242,24.6711163 L19.672135,20.6836163 C19.2854464,20.2711163 18.6323725,20.2453351 18.2113116,20.6406476 L5.82868526,32.2422101 C5.39043825,32.6461163 5.39043825,33.3422101 5.82868526,33.7461163 L18.2113116,45.3562726 C18.6323725,45.7515851 19.2854464,45.7343976 19.672135,45.3133038 L19.672135,45.3133038 Z M47.7886884,45.3648663 L60.1713147,33.7547101 C60.6095618,33.3508038 60.6095618,32.6547101 60.1713147,32.2508038 L47.7886884,20.6320538 C47.3762206,20.2453351 46.7231466,20.2625226 46.327865,20.6750226 L42.5898758,24.6625226 C42.1945942,25.0836163 42.2203734,25.7539288 42.6586204,26.1406476 L50.4439497,32.9984601 L42.6586204,39.8476788 C42.2203734,40.2343976 42.1860011,40.9047101 42.5898758,41.3258038 L46.327865,45.3133038 C46.7145536,45.7343976 47.3676275,45.7515851 47.7886884,45.3648663 Z" id="path-1"></path>
    </defs>
    <g id="Flyeee-Yang's-Portfolio" stroke="none" stroke-width="1" fill="none" fill-rule="evenodd">
        <g id="網頁版index" transform="translate(-248.000000, -2022.000000)">
            <g id="Icons/Solid/code" transform="translate(243.000000, 2011.000000)">
                <mask id="mask-2" fill="white">
                    <use xlink:href="#path-1"></use>
                </mask>
                <use id="code" fill="#000000" fill-rule="nonzero" xlink:href="#path-1"></use>
                <g id="Colors/5th" mask="url(#mask-2)" fill="#FFFFFF" fill-rule="evenodd">
                    <rect id="Rectangle" x="0" y="0" width="66" height="66"></rect>
                </g>
            </g>
        </g>
    </g>
</svg>