<?xml version="1.0" encoding="utf-8"?>
<!-- Generator: Adobe Illustrator 22.1.0, SVG Export Plug-In . SVG Version: 6.00 Build 0)  -->
<svg version="1.1" id="圖層_1" xmlns="http://www.w3.org/2000/svg" xmlns:xlink="http://www.w3.org/1999/xlink" x="0px" y="0px"
	 viewBox="0 0 66 66" style="enable-background:new 0 0 66 66;" xml:space="preserve">
<style type="text/css">
	.st0{fill:#FFFFFF;}
</style>
<title>Icons/Solid/eye</title>
<g id="網頁版index" transform="translate(-248.000000, -2336.000000)">
	<g id="Icons_x2F_Solid_x2F_eye" transform="translate(243.000000, 2321.000000)">
		<g id="eye">
			<path id="path-1_1_" class="st0" d="M64.9,45.6C59.5,36.4,49.4,30.2,38,30.2c-11.4,0-21.5,6.2-26.9,15.4c-0.8,1.5-0.8,3.3,0,4.7
				c5.4,9.3,15.4,15.4,26.9,15.4c11.4,0,21.5-6.2,26.9-15.4C65.7,48.9,65.7,47.1,64.9,45.6z M38,61.1c-7.2,0-13-5.9-13-13.1
				c0-7.3,5.8-13.1,13-13.1c7.2,0,13,5.9,13,13.1C51,55.3,45.2,61.1,38,61.1z M47.9,48c0,5.6-4.4,10.1-9.9,10.1s-9.9-4.5-9.9-10.1
				c0-1.7,0.4-3.3,1.2-4.7l0,0c0,2.3,1.8,4.1,4.1,4.1s4.1-1.9,4.1-4.1c0-2.3-1.8-4.1-4.1-4.1l0,0c1.4-0.8,3-1.2,4.7-1.2
				C43.5,37.9,47.9,42.4,47.9,48z"/>
		</g>
	</g>
</g>
</svg>
