<?xml version="1.0" encoding="UTF-8"?>
<svg width="56px" height="36px" viewBox="0 0 56 36" version="1.1" xmlns="http://www.w3.org/2000/svg" xmlns:xlink="http://www.w3.org/1999/xlink">
    <title>Icons/Solid/eye</title>
    <defs>
        <path d="M59.8653526,30.6440127 C54.4813774,21.3935068 44.4401704,15.2109375 33,15.2109375 C21.5550528,15.2109375 11.516042,21.3978574 6.13464481,30.6440127 C5.28845173,32.0978663 5.28845173,33.9022304 6.13464481,35.356084 C11.5186201,44.6064932 21.5598271,50.7890625 33,50.7890625 C44.4449447,50.7890625 54.4839555,44.6021426 59.8653526,35.3559873 C60.7115491,33.9021693 60.7115491,32.0978307 59.8653526,30.6440127 Z M32.9999987,46.1484375 C25.8230838,46.1484375 20.0139096,40.2677021 20.0139096,33 C20.0139096,25.7333613 25.8219379,19.8515625 32.9999987,19.8515625 C40.1769137,19.8515625 45.9860879,25.7322012 45.9860879,33 C45.9860879,40.2666387 40.1780595,46.1484375 32.9999987,46.1484375 Z M42.9305375,33 C42.9305375,38.5530879 38.4845207,43.0546875 32.9999987,43.0546875 C27.5154767,43.0546875 23.0694599,38.5530879 23.0694599,33 C23.0694599,31.2879961 23.4925582,29.676249 24.237826,28.2653057 L24.2377305,28.2683994 C24.2377305,30.5549707 26.0684827,32.4085137 28.3268209,32.4085137 C30.5851591,32.4085137 32.4159112,30.554874 32.4159112,28.2683994 C32.4159112,25.9818281 30.5851591,24.1281885 28.3268209,24.1281885 L28.3237653,24.1282852 C29.7172873,23.3737002 31.3091335,22.9453125 32.9999987,22.9453125 C38.4845207,22.9453125 42.9305375,27.4469121 42.9305375,33 Z" id="path-1"></path>
    </defs>
    <g id="Flyeee-Yang's-Portfolio" stroke="none" stroke-width="1" fill="none" fill-rule="evenodd">
        <g id="網頁版index" transform="translate(-248.000000, -2336.000000)">
            <g id="Icons/Solid/eye" transform="translate(243.000000, 2321.000000)">
                <mask id="mask-2" fill="white">
                    <use xlink:href="#path-1"></use>
                </mask>
                <use id="eye" fill="#000000" fill-rule="nonzero" xlink:href="#path-1"></use>
                <g id="Colors/5th" mask="url(#mask-2)" fill="#FFFFFF" fill-rule="evenodd">
                    <rect id="Rectangle" x="0" y="0" width="66" height="66"></rect>
                </g>
            </g>
        </g>
    </g>
</svg>