<?xml version="1.0" encoding="utf-8"?>
<!-- Generator: Adobe Illustrator 22.1.0, SVG Export Plug-In . SVG Version: 6.00 Build 0)  -->
<svg version="1.1" id="圖層_1" xmlns="http://www.w3.org/2000/svg" xmlns:xlink="http://www.w3.org/1999/xlink" x="0px" y="0px"
	 viewBox="0 0 66 58.9" style="enable-background:new 0 0 66 58.9;" xml:space="preserve">
<style type="text/css">
	.st0{fill:#FFFFFF;}
</style>
<title>Icons/Regular/gem</title>
<g id="Flyeee-Yang_x27_s-Portfolio">
	<g id="網頁版index" transform="translate(-768.000000, -2021.000000)">
		<g id="Icons_x2F_Regular_x2F_gem" transform="translate(763.000000, 2013.000000)">
			<g id="gem">
				<path id="path-1_1_" class="st0" d="M54.8,12.7H21.2c-0.4,0-0.7,0.2-1,0.5l-9.5,14.2c-0.3,0.4-0.2,1,0.1,1.4l26.4,32.9
					c0.5,0.6,1.3,0.6,1.8,0l26.4-32.9c0.3-0.4,0.3-0.9,0.1-1.4l-9.5-14.2C55.5,12.9,55.2,12.7,54.8,12.7z M53,17.4l6,9.3h-6.5
					l-4.9-9.3H53L53,17.4z M33.7,17.4h8.7l4.9,9.3H28.7L33.7,17.4z M23,17.4h5.4l-4.9,9.3H17L23,17.4z M18.9,31.3h4.9l6.5,15.5
					L18.9,31.3z M28.8,31.3h18.5L38,54.8L28.8,31.3z M45.6,46.7l6.5-15.5h4.9L45.6,46.7z"/>
			</g>
		</g>
	</g>
</g>
</svg>
