<?xml version="1.0" encoding="utf-8"?>
<!-- Generator: Adobe Illustrator 22.1.0, SVG Export Plug-In . SVG Version: 6.00 Build 0)  -->
<svg version="1.1" id="圖層_1" xmlns="http://www.w3.org/2000/svg" xmlns:xlink="http://www.w3.org/1999/xlink" x="0px" y="0px"
	 viewBox="0 0 64 64" style="enable-background:new 0 0 64 64;" xml:space="preserve">
<style type="text/css">
	.st0{fill:#FFFFFF;}
</style>
<path class="st0" d="M32,8l-15.1,2.2l-11.4,16l26.5,31l26.5-31l-11.4-16L32,8z M26.9,12.7l-6.5,7.5l0.5-6.6L26.9,12.7z M37.1,12.7
	l6.1,0.9l0.5,6.6L37.1,12.7z M32,13l9.6,11H22.4L32,13z M16.6,17.4L16.1,24h-4.2L16.6,17.4z M47.4,17.4l4.7,6.6h-4.2L47.4,17.4z
	 M12.4,28h4.4l6.2,12.4L12.4,28z M21.2,28h21.5L32,49.5L21.2,28z M47.2,28h4.4L41.1,40.4L47.2,28z"/>
</svg>
