<?xml version="1.0" encoding="utf-8"?>
<!-- Generator: Adobe Illustrator 22.1.0, SVG Export Plug-In . SVG Version: 6.00 Build 0)  -->
<svg version="1.1" id="圖層_1" xmlns="http://www.w3.org/2000/svg" xmlns:xlink="http://www.w3.org/1999/xlink" x="0px" y="0px"
	 viewBox="0 0 66 66" style="enable-background:new 0 0 66 66;" xml:space="preserve">
<style type="text/css">
	.st0{fill:#FFFFFF;}
</style>
<title>Icons/Solid/paint-brush</title>
<g id="Flyeee-Yang_x27_s-Portfolio">
	<g id="網頁版index" transform="translate(-768.000000, -2326.000000)">
		<g id="Icons_x2F_Solid_x2F_paint-brush" transform="translate(763.000000, 2321.000000)">
			<g id="paint-brush">
				<path id="path-1_1_" class="st0" d="M39.5,49.7c0.2,0.7,0.2,1.4,0.2,2.1c0,8.7-5.8,13.7-14.5,13.7c-10.3,0-14.7-8.3-14.7-17.7
					c1.1,0.8,5,3.9,6.3,3.9c0.8,0,1.4-0.4,1.7-1.1c2.5-6.7,7.1-8.2,12.1-8.3C32.3,45.9,35.5,48.7,39.5,49.7L39.5,49.7z M60,10.5
					c-1.5,0-3,0.7-4.1,1.7c-20.9,18.7-23,19.2-23,24.7c0,5.2,4.4,9.7,9.7,9.7c6.3,0,10-4.7,21.5-26.3c0.8-1.5,1.4-3.1,1.4-4.7
					C65.5,12.6,62.8,10.5,60,10.5z"/>
			</g>
		</g>
	</g>
</g>
</svg>
