<?xml version="1.0" encoding="UTF-8"?>
<svg width="56px" height="56px" viewBox="0 0 56 56" version="1.1" xmlns="http://www.w3.org/2000/svg" xmlns:xlink="http://www.w3.org/1999/xlink">
    <title>Icons/Solid/paint-brush</title>
    <defs>
        <path d="M34.4931641,44.6660156 C34.6435547,45.3535156 34.71875,46.0625 34.71875,46.7822266 C34.71875,55.5048828 28.8964844,60.5 20.2382812,60.5 C9.95800781,60.5 5.5,52.2392578 5.5,42.8398438 C6.6171875,43.6025391 10.5380859,46.7607422 11.8056641,46.7607422 C12.5576172,46.7607422 13.2021484,46.3310547 13.4707031,45.6220703 C16.0058594,38.9404297 20.6142578,37.4042969 25.5986328,37.3076172 C27.2744141,40.9384766 30.5507813,43.7099609 34.4931641,44.6660156 L34.4931641,44.6660156 Z M54.9785156,5.5 C53.4316406,5.5 51.9814453,6.1875 50.875,7.18652344 C30.0136719,25.9101562 27.84375,26.3505859 27.84375,31.8613281 C27.84375,37.1035156 32.1943359,41.59375 37.5332031,41.59375 C43.8710938,41.59375 47.5449219,36.9316406 59.0820312,15.296875 C59.8339844,13.8251953 60.5,12.2353516 60.5,10.5810547 C60.5,7.61621094 57.8466797,5.5 54.9785156,5.5 Z" id="path-1"></path>
    </defs>
    <g id="Flyeee-Yang's-Portfolio" stroke="none" stroke-width="1" fill="none" fill-rule="evenodd">
        <g id="網頁版index" transform="translate(-768.000000, -2326.000000)">
            <g id="Icons/Solid/paint-brush" transform="translate(763.000000, 2321.000000)">
                <mask id="mask-2" fill="white">
                    <use xlink:href="#path-1"></use>
                </mask>
                <use id="paint-brush" fill="#000000" fill-rule="nonzero" xlink:href="#path-1"></use>
                <g id="Colors/5th" mask="url(#mask-2)" fill="#FFFFFF" fill-rule="evenodd">
                    <rect id="Rectangle" x="0" y="0" width="66" height="66"></rect>
                </g>
            </g>
        </g>
    </g>
</svg>