<?xml version="1.0" encoding="UTF-8"?>
<svg width="52px" height="52px" viewBox="0 0 52 52" version="1.1" xmlns="http://www.w3.org/2000/svg" xmlns:xlink="http://www.w3.org/1999/xlink">
    <title>Group 6</title>
    <g id="Flyeee-Yang's-Portfolio" stroke="none" stroke-width="1" fill="none" fill-rule="evenodd">
        <g id="網頁版index" transform="translate(-1371.000000, -5107.000000)" fill-rule="nonzero">
            <g id="Group-6" transform="translate(1371.000000, 5107.000000)">
                <path d="M0,26 C0,11.6370968 11.6370968,0 26,0 C40.3629032,0 52,11.6370968 52,26 C52,40.3629032 40.3629032,52 26,52 C11.6370968,52 0,40.3629032 0,26 Z" id="Path" fill="#00EBE2"></path>
                <path d="M30.5055318,38.0424856 L30.5055318,26.1642655 L37.7655818,26.1642655 C38.8612452,26.1642655 39.4141968,24.8330856 38.6359686,24.0650973 L26.8703868,12.3609545 C26.3891141,11.8796818 25.6211257,11.8796818 25.139853,12.3609545 L13.3640314,24.0650973 C12.5858032,24.8433255 13.1387548,26.1642655 14.2344182,26.1642655 L21.4944682,26.1642655 L21.4944682,38.0424856 C21.4944682,38.7183154 22.0474199,39.271267 22.7232496,39.271267 L29.2767504,39.271267 C29.9525801,39.271267 30.5055318,38.7183154 30.5055318,38.0424856 Z" id="Path" fill="#FFFFFF"></path>
            </g>
        </g>
    </g>
</svg>